<?xml version="1.0" standalone="no"?>
<!DOCTYPE svg PUBLIC "-//W3C//DTD SVG 20010904//EN"
 "http://www.w3.org/TR/2001/REC-SVG-20010904/DTD/svg10.dtd">
<svg version="1.0" xmlns="http://www.w3.org/2000/svg"
 width="931.000000pt" height="935.000000pt" viewBox="0 0 931.000000 935.000000"
 preserveAspectRatio="xMidYMid meet">
<metadata>
Created by potrace 1.15, written by Peter Selinger 2001-2017
</metadata>
<g transform="translate(0.000000,935.000000) scale(0.100000,-0.100000)"
fill="#000000" stroke="none">
<path d="M8652 6214 c-12 -13 -525 -1571 -534 -1619 -1 -11 -6 -22 -9 -25 -8
-6 -389 -1178 -389 -1197 0 -7 -4 -21 -10 -31 -20 -35 -510 -1557 -505 -1570
2 -7 1 -11 -3 -8 -7 4 -73 -178 -71 -200 0 -12 48 114 55 146 6 30 25 43 37
27 6 -8 7 -6 3 5 -3 10 -1 20 5 24 6 3 8 12 5 20 -3 7 0 16 6 20 6 4 8 3 5 -3
-4 -6 -1 -16 7 -22 11 -9 15 -7 19 9 3 13 13 20 28 20 22 0 22 0 3 15 -19 15
-19 15 0 30 23 17 40 20 31 4 -4 -6 2 -5 14 3 12 7 21 16 21 21 0 4 -4 6 -9 2
-5 -3 -12 -1 -16 5 -3 5 3 10 14 10 11 0 22 9 26 20 4 11 10 18 15 15 4 -3 11
2 14 11 3 9 13 14 21 11 9 -4 12 -1 8 9 -6 16 13 20 20 4 3 -6 4 -5 3 2 -1 7
8 21 21 31 24 20 54 65 34 53 -7 -5 -9 -1 -5 8 7 19 25 20 43 4 11 -11 11 -9
2 9 -16 31 -14 40 5 17 15 -19 15 -19 9 2 -4 16 0 23 16 27 11 3 18 10 15 15
-3 5 4 19 15 30 26 28 33 28 17 -1 -18 -32 -18 -46 -1 -40 10 4 11 8 3 13 -8
5 -7 9 4 13 9 4 16 16 16 27 0 11 5 20 11 20 8 0 8 4 -1 14 -10 13 -7 14 15
10 24 -4 27 -2 22 16 -3 11 -1 20 4 20 5 0 9 -4 9 -10 0 -5 7 -7 16 -3 13 5
13 7 2 14 -10 7 -11 9 0 9 7 0 11 4 8 8 -5 8 28 42 41 42 8 0 32 31 43 56 8
21 50 40 50 23 0 -5 4 -9 9 -9 5 0 8 8 7 18 0 9 4 16 11 15 7 -2 10 4 6 13 -4
10 2 17 16 21 11 3 18 9 15 14 -3 5 2 9 11 9 9 0 13 5 10 10 -3 6 -2 10 4 10
5 0 13 9 16 20 3 11 11 20 16 20 6 0 7 -6 3 -12 -4 -7 1 -6 10 3 9 9 18 25 19
36 1 14 7 19 24 17 27 -3 31 12 6 19 -17 4 -17 5 0 6 9 0 17 6 17 12 0 8 4 8
13 0 21 -17 39 6 25 33 -10 19 -10 20 6 7 14 -12 16 -12 10 2 -7 19 29 40 71
41 23 1 30 6 31 22 1 12 4 26 8 33 4 6 2 11 -4 11 -6 0 -9 4 -6 9 3 5 15 7 27
4 13 -4 27 2 40 16 11 12 26 18 32 15 9 -5 9 -4 0 6 -10 10 -15 11 -27 1 -10
-8 -16 -9 -21 -1 -3 5 1 10 10 10 9 0 14 4 10 9 -3 6 6 8 22 5 22 -4 25 -3 16
7 -16 16 26 57 67 65 20 5 27 12 26 27 -1 16 5 22 19 22 11 0 20 7 20 15 0 8
8 24 18 34 9 11 17 24 17 28 0 5 5 6 10 3 8 -5 8 -11 0 -20 -8 -9 -8 -15 0
-20 6 -4 9 -2 8 4 -2 5 6 17 17 25 16 13 17 15 3 10 -10 -3 -18 -1 -18 5 0 6
5 11 10 11 6 0 10 7 10 15 0 18 11 19 29 3 11 -11 13 -10 8 4 -6 17 15 43 26
31 4 -3 7 5 8 18 0 22 1 23 9 4 8 -18 9 -18 9 -2 1 12 5 16 14 11 7 -5 6 0 -3
11 -8 10 -10 16 -4 12 7 -4 15 0 18 9 3 8 11 12 17 8 7 -4 9 -3 6 2 -3 6 -1
16 4 24 7 13 10 13 18 1 6 -9 11 -10 15 -2 4 6 2 11 -5 11 -8 0 -9 3 0 13 6 8
8 17 5 20 -4 4 3 4 16 2 17 -3 20 -1 11 9 -9 10 -8 15 3 19 9 4 18 2 21 -4 4
-5 11 -7 16 -3 6 3 5 12 -3 22 -8 10 -9 13 -1 9 6 -4 14 -3 18 3 4 6 11 8 16
4 12 -7 7 19 -6 29 -5 5 0 5 13 2 15 -4 22 -2 22 7 0 8 12 19 28 26 20 9 21
11 5 8 -15 -3 -20 0 -16 10 3 9 13 12 25 8 15 -4 18 -3 13 6 -5 8 -4 11 1 7 6
-3 16 -2 24 4 8 5 10 9 4 9 -6 0 -11 6 -11 14 0 7 7 13 15 12 9 0 19 10 23 24
4 16 7 19 8 8 1 -10 6 -18 12 -18 5 0 7 -4 4 -10 -10 -16 1 -11 16 7 8 9 9 14
3 10 -7 -4 -15 0 -18 9 -3 8 -2 12 3 9 5 -3 13 5 17 17 7 22 7 22 15 3 8 -20
8 -20 8 1 1 11 -5 26 -11 33 -11 10 -9 11 6 5 15 -6 17 -4 11 7 -5 8 2 5 15
-6 l23 -20 -13 24 c-11 21 -10 23 4 18 10 -4 15 -3 11 3 -3 6 -1 10 6 10 7 0
10 2 7 5 -3 3 4 17 16 30 14 16 23 20 28 12 5 -8 8 -6 8 6 0 9 4 25 10 35 11
20 43 182 65 329 63 428 61 953 -5 1387 -23 151 -37 205 -56 226 -8 8 -36 44
-64 80 -27 36 -62 80 -77 99 -16 19 -27 38 -25 43 1 4 -5 8 -13 8 -8 0 -15 6
-15 14 0 8 -8 21 -17 28 -20 15 -38 41 -53 76 -5 12 -14 22 -20 22 -6 0 -15
11 -20 25 -5 14 -14 25 -20 25 -6 0 -9 4 -5 9 3 5 -6 18 -20 29 -14 11 -25 23
-25 27 0 3 -18 28 -40 54 -22 26 -40 53 -40 59 0 17 -32 14 -48 -4z"/>
<path d="M5690 5805 c112 -199 147 -285 181 -447 29 -138 32 -383 6 -506 -86
-396 -330 -715 -683 -891 -293 -147 -659 -173 -968 -70 -198 66 -347 158 -505
312 -91 89 -93 86 -14 -18 5 -5 22 -30 38 -55 17 -25 35 -50 40 -56 6 -6 17
-21 25 -34 8 -12 56 -77 105 -145 50 -68 97 -133 105 -145 8 -12 20 -28 25
-34 6 -6 24 -31 40 -56 17 -25 35 -50 40 -56 6 -6 17 -21 25 -34 91 -133 162
-219 187 -224 147 -30 392 -29 588 4 735 125 1307 693 1449 1440 11 56 11 73
1 83 -6 7 -18 23 -25 37 -7 13 -17 29 -22 34 -24 30 -44 56 -58 76 -8 12 -55
77 -105 145 -49 68 -97 133 -105 145 -8 12 -20 28 -26 34 -6 6 -17 22 -24 36
-7 13 -17 29 -22 34 -24 30 -44 56 -58 76 -8 12 -55 77 -105 145 -49 68 -97
133 -105 145 -8 13 -23 32 -33 44 -14 16 -13 11 3 -19z"/>
<path d="M900 3870 c0 -19 540 -773 588 -820 13 -14 22 -19 18 -12 -4 7 -1 12
8 12 14 0 20 12 17 32 0 5 2 7 7 7 22 -4 32 3 32 21 0 18 15 25 42 21 4 0 12
7 17 17 6 12 2 40 -15 92 l-24 75 -143 115 c-78 64 -222 178 -319 255 -97 77
-177 144 -177 149 -1 5 -12 19 -26 32 -23 21 -25 22 -25 4z"/>
<path d="M2660 2311 c0 -6 10 -21 23 -35 12 -14 45 -53 72 -88 28 -35 53 -64
58 -66 4 -2 7 -10 7 -18 0 -8 3 -14 8 -14 4 0 18 -18 32 -40 13 -22 28 -40 32
-40 4 0 8 -6 8 -14 0 -8 7 -16 15 -20 8 -3 15 -11 15 -18 0 -8 9 -20 20 -28
11 -8 20 -18 20 -22 0 -4 8 -17 18 -27 31 -34 62 -73 62 -78 0 -7 51 -75 72
-96 10 -10 25 -31 33 -47 9 -17 19 -30 24 -30 5 0 18 -15 30 -32 l20 -33 -535
-5 -535 -5 40 -45 c22 -25 41 -49 41 -54 0 -5 7 -16 15 -25 26 -27 85 -106 85
-113 0 -4 14 -21 30 -36 17 -16 30 -34 30 -40 0 -6 9 -16 20 -22 11 -6 20 -17
20 -25 0 -7 11 -23 26 -34 14 -11 25 -23 25 -28 1 -8 33 -53 57 -78 6 -8 12
-17 12 -21 0 -4 7 -14 15 -23 40 -44 52 -59 75 -91 13 -19 30 -41 37 -48 7 -7
13 -17 13 -21 0 -5 10 -19 23 -33 12 -13 42 -50 66 -81 24 -31 47 -57 52 -57
5 0 9 -9 9 -19 0 -10 7 -21 15 -25 8 -3 15 -12 15 -20 0 -9 9 -20 20 -26 11
-6 20 -16 20 -23 0 -7 11 -22 25 -35 13 -13 29 -36 36 -52 7 -16 16 -27 20
-25 3 3 12 -7 19 -20 14 -26 69 -48 285 -118 314 -101 666 -169 1028 -198 197
-15 697 -7 877 16 205 25 412 63 421 76 4 6 16 9 28 6 12 -3 19 -2 17 2 -2 3
2 17 10 31 7 14 13 21 14 15 0 -5 8 6 19 25 10 20 27 36 40 38 12 2 19 7 16
11 -2 5 5 17 17 27 12 11 18 14 15 7 -4 -6 -2 -15 4 -19 8 -4 9 -3 5 4 -4 7
-2 12 5 12 7 0 10 2 7 5 -8 9 52 66 62 60 5 -3 14 4 20 15 6 11 15 18 20 15 4
-3 6 4 3 14 -4 15 5 25 34 41 21 12 30 19 21 16 -10 -3 -18 -2 -18 3 0 5 9 11
20 14 11 3 19 11 17 19 -2 7 -2 10 0 6 3 -5 11 -8 19 -8 9 0 12 5 9 10 -3 5
-2 10 4 10 5 0 12 -6 14 -12 4 -10 6 -10 6 0 1 7 -6 15 -15 19 -13 5 -13 7 -2
14 19 12 30 11 22 -3 -4 -7 -3 -8 4 -4 6 4 9 13 6 20 -3 8 0 17 7 22 8 5 10 3
4 -7 -5 -8 1 -5 13 5 24 21 29 30 10 21 -7 -4 -4 0 6 9 10 8 24 12 30 9 6 -4
4 2 -4 12 -14 17 -13 18 3 12 10 -4 16 -3 13 2 -3 5 8 19 25 31 19 15 28 29
24 39 -5 13 -4 13 6 4 10 -10 9 -15 -1 -28 -7 -8 -8 -15 -2 -15 5 0 15 7 22
15 7 8 9 15 6 15 -4 0 -1 6 6 14 7 8 17 12 22 9 4 -3 5 5 1 17 -5 16 -4 20 4
15 14 -8 43 13 36 26 -7 10 30 49 45 49 6 0 10 4 10 10 0 5 6 8 13 6 6 -1 9
-1 5 1 -14 8 -8 23 8 23 10 0 14 6 10 15 -3 8 -2 14 2 14 20 -3 31 3 37 21 3
11 17 23 31 26 13 3 24 12 24 20 0 8 10 14 22 14 21 0 21 0 2 15 -18 15 -18
15 0 8 12 -4 17 -3 13 4 -4 6 3 13 14 16 12 3 18 10 14 16 -3 6 1 11 10 11 9
0 13 4 10 10 -3 5 -1 10 6 10 16 0 100 90 94 100 -3 4 5 6 17 2 16 -4 19 -2
13 8 -6 9 -4 11 4 5 8 -4 19 1 28 15 12 17 17 19 24 9 7 -11 9 -10 9 4 0 9 -4
17 -10 17 -5 0 -10 4 -10 10 0 5 5 9 12 7 7 -1 12 4 13 11 0 14 13 17 23 6 4
-4 1 -4 -7 1 -9 5 -12 4 -7 -3 9 -15 11 -15 27 5 12 14 12 16 -1 9 -8 -4 -7
-1 3 7 10 9 19 19 20 23 1 5 11 10 22 12 11 1 26 9 34 17 12 12 12 13 0 12 -8
-2 -21 -7 -29 -12 -9 -5 -8 0 4 13 11 12 25 22 33 22 7 0 16 7 19 15 5 13 9
13 22 3 12 -10 14 -10 8 0 -4 7 -2 12 4 12 7 0 10 7 6 15 -3 8 -1 15 5 15 6 0
7 6 4 13 -4 6 1 3 11 -8 12 -14 15 -16 11 -4 -7 21 11 39 32 31 14 -5 14 -4 2
11 -13 16 -123 17 -1625 17 -886 0 -1718 0 -1848 0 l-238 0 0 25 c0 16 6 25
15 25 8 0 15 5 15 11 0 6 8 8 18 5 14 -5 14 -4 -2 9 -17 13 -17 15 -3 15 9 0
21 -8 27 -17 10 -15 11 -14 6 7 -3 19 2 30 21 44 15 11 23 14 19 8 -4 -7 -2
-12 3 -12 15 0 14 27 -1 33 -7 3 -3 6 9 6 12 1 24 -5 26 -11 3 -7 6 3 6 23 1
24 7 39 17 43 8 3 12 2 9 -3 -3 -5 -1 -12 5 -16 5 -3 10 -2 10 4 0 5 3 17 7
27 5 13 3 15 -7 9 -9 -5 -11 -4 -6 3 5 9 13 9 27 1 20 -10 20 -11 2 -24 -10
-8 -13 -15 -7 -15 18 0 37 27 24 35 -5 3 -10 11 -10 16 0 6 4 8 9 4 5 -3 19 8
31 25 12 17 25 28 30 25 13 -8 33 23 26 41 -4 11 -2 15 7 11 13 -5 43 30 39
45 -1 5 1 7 6 6 15 -4 52 23 46 34 -5 7 -2 9 9 5 12 -4 14 -2 10 10 -5 13 -2
15 11 10 9 -4 15 -3 12 2 -3 5 1 11 9 14 10 4 12 1 8 -11 -4 -13 -2 -12 10 3
8 11 12 22 8 25 -5 3 1 14 12 25 15 15 19 16 14 4 -3 -9 0 -16 9 -16 9 0 12 7
8 19 -4 14 0 18 18 19 21 0 22 1 3 8 -19 8 -19 9 5 17 14 4 28 7 32 6 4 -1 5
5 1 14 -4 11 0 14 21 10 18 -3 26 0 26 10 0 8 -5 14 -12 14 -21 0 7 21 30 23
11 0 18 5 16 9 -3 5 -11 5 -17 2 -7 -4 -5 -1 3 7 8 8 20 21 28 29 12 13 13 13
7 0 -4 -10 -2 -9 8 2 8 10 17 16 20 13 4 -3 5 -2 2 1 -2 4 0 15 6 25 9 18 -10
19 -691 19 -435 0 -700 -4 -700 -9z"/>
</g>
</svg>
